<svg class="animated" id="freepik_stories-toggle" xmlns="http://www.w3.org/2000/svg" viewBox="0 0 500 500" version="1.1" xmlns:xlink="http://www.w3.org/1999/xlink" xmlns:svgjs="http://svgjs.com/svgjs"><style>svg#freepik_stories-toggle:not(.animated) .animable {opacity: 0;}svg#freepik_stories-toggle.animated #freepik--background-complete--inject-97 {animation: 1s 1 forwards cubic-bezier(.36,-0.01,.5,1.38) zoomIn;animation-delay: 0s;}svg#freepik_stories-toggle.animated #freepik--button-2--inject-97 {animation: 1s 1 forwards cubic-bezier(.36,-0.01,.5,1.38) slideLeft;animation-delay: 0s;}svg#freepik_stories-toggle.animated #freepik--button-1--inject-97 {animation: 1s 1 forwards cubic-bezier(.36,-0.01,.5,1.38) slideRight;animation-delay: 0s;}svg#freepik_stories-toggle.animated #freepik--Plant--inject-97 {animation: 1s 1 forwards cubic-bezier(.36,-0.01,.5,1.38) slideRight;animation-delay: 0s;}            @keyframes zoomIn {                0% {                    opacity: 0;                    transform: scale(0.5);                }                100% {                    opacity: 1;                    transform: scale(1);                }            }                    @keyframes slideLeft {                0% {                    opacity: 0;                    transform: translateX(-30px);                }                100% {                    opacity: 1;                    transform: translateX(0);                }            }                    @keyframes slideRight {                0% {                    opacity: 0;                    transform: translateX(30px);                }                100% {                    opacity: 1;                    transform: translateX(0);                }            }        </style><g id="freepik--background-complete--inject-97" class="animable" style="transform-origin: 250.79px 242.3px;"><path d="M444.71,349.14H264a5.87,5.87,0,0,1-5.86-5.86V80A5.87,5.87,0,0,1,264,74.15H444.71A5.87,5.87,0,0,1,450.57,80V343.28A5.87,5.87,0,0,1,444.71,349.14ZM264,74.4A5.61,5.61,0,0,0,258.35,80V343.28a5.61,5.61,0,0,0,5.61,5.61H444.71a5.61,5.61,0,0,0,5.61-5.61V80a5.61,5.61,0,0,0-5.61-5.61Z" style="fill: rgb(240, 240, 240); transform-origin: 354.355px 211.645px;" id="elbnrx2u7m1mn" class="animable"></path><path d="M236.28,349.14H55.53a5.87,5.87,0,0,1-5.86-5.86V80a5.87,5.87,0,0,1,5.86-5.86H236.28A5.87,5.87,0,0,1,242.14,80V343.28A5.87,5.87,0,0,1,236.28,349.14ZM55.53,74.4A5.61,5.61,0,0,0,49.92,80V343.28a5.61,5.61,0,0,0,5.61,5.61H236.28a5.61,5.61,0,0,0,5.61-5.61V80a5.61,5.61,0,0,0-5.61-5.61Z" style="fill: rgb(240, 240, 240); transform-origin: 145.905px 211.64px;" id="elfnzzevbopn5" class="animable"></path><rect x="0.79" y="410.21" width="500" height="0.25" style="fill: rgb(224, 224, 224); transform-origin: 250.79px 410.335px;" id="elds890yw2q1e" class="animable"></rect><g id="elqo4ule7n0wg"><rect x="179.72" y="89.42" width="34.57" height="10.13" rx="1.5" style="fill: rgb(240, 240, 240); transform-origin: 197.005px 94.485px; transform: rotate(180deg);" class="animable"></rect></g><g id="els208z35ok3r"><rect x="160.86" y="102.34" width="34.57" height="10.13" rx="1.5" style="fill: rgb(240, 240, 240); transform-origin: 178.145px 107.405px; transform: rotate(180deg);" class="animable"></rect></g><rect x="64.39" y="277.13" width="34.57" height="10.13" rx="1.5" style="fill: rgb(240, 240, 240); transform-origin: 81.675px 282.195px;" id="elji5fxx78vg" class="animable"></rect><rect x="83.25" y="290.04" width="34.57" height="10.13" rx="1.5" style="fill: rgb(240, 240, 240); transform-origin: 100.535px 295.105px;" id="elj1vvxpzdgxg" class="animable"></rect><rect x="279.45" y="88.03" width="34.57" height="10.13" rx="1.5" style="fill: rgb(240, 240, 240); transform-origin: 296.735px 93.095px;" id="el6gybqqk3wpj" class="animable"></rect><rect x="317.16" y="88.03" width="34.57" height="10.13" rx="1.5" style="fill: rgb(240, 240, 240); transform-origin: 334.445px 93.095px;" id="el1u4f6k06b6t" class="animable"></rect><rect x="298.3" y="100.94" width="34.57" height="10.13" rx="1.5" style="fill: rgb(240, 240, 240); transform-origin: 315.585px 106.005px;" id="eld61dtbhfgcu" class="animable"></rect><rect x="368.65" y="91.48" width="70.32" height="170.85" style="fill: rgb(240, 240, 240); transform-origin: 403.81px 176.905px;" id="el3e49red9r13" class="animable"></rect><rect x="372.94" y="95.77" width="61.74" height="162.27" style="fill: rgb(250, 250, 250); transform-origin: 403.81px 176.905px;" id="elm0aohpz3x" class="animable"></rect><polygon points="434.68 102.72 434.68 114.97 372.94 176.72 372.94 164.46 434.68 102.72" style="fill: rgb(255, 255, 255); transform-origin: 403.81px 139.72px;" id="el2c1md76v8ra" class="animable"></polygon><polygon points="434.68 145.09 434.68 162.37 372.94 224.11 372.94 206.82 434.68 145.09" style="fill: rgb(255, 255, 255); transform-origin: 403.81px 184.6px;" id="elliipycox7d" class="animable"></polygon><rect x="401.69" y="91.48" width="4.25" height="170.85" style="fill: rgb(240, 240, 240); transform-origin: 403.815px 176.905px;" id="elgitp9qgc5xm" class="animable"></rect><rect x="368.65" y="174.72" width="70.32" height="4.36" style="fill: rgb(240, 240, 240); transform-origin: 403.81px 176.9px;" id="eldqj7zf0r8iv" class="animable"></rect><rect x="64.39" y="91.48" width="70.32" height="170.85" style="fill: rgb(240, 240, 240); transform-origin: 99.55px 176.905px;" id="elufwxhmhl21c" class="animable"></rect><rect x="68.68" y="95.77" width="61.74" height="162.27" style="fill: rgb(250, 250, 250); transform-origin: 99.55px 176.905px;" id="el48h50cldbry" class="animable"></rect><polygon points="130.42 102.72 130.42 114.97 68.68 176.72 68.68 164.46 130.42 102.72" style="fill: rgb(255, 255, 255); transform-origin: 99.55px 139.72px;" id="el0yt187k81ia" class="animable"></polygon><polygon points="130.42 145.09 130.42 162.37 68.68 224.11 68.68 206.82 130.42 145.09" style="fill: rgb(255, 255, 255); transform-origin: 99.55px 184.6px;" id="elijxxgz93pt" class="animable"></polygon><rect x="97.42" y="91.48" width="4.25" height="170.85" style="fill: rgb(240, 240, 240); transform-origin: 99.545px 176.905px;" id="elpfaiqwwrbr" class="animable"></rect><rect x="64.39" y="174.72" width="70.32" height="4.36" style="fill: rgb(240, 240, 240); transform-origin: 99.55px 176.9px;" id="elxepisyuvula" class="animable"></rect><path d="M451.05,342.27,445.43,361l-.75,2.51-2.94,9.76a6.42,6.42,0,0,1-6.14,4.57H277.47a6.4,6.4,0,0,1-6.13-4.57l-2.94-9.76-.76-2.51L262,342.27a2.32,2.32,0,0,1,2.22-3H448.83A2.32,2.32,0,0,1,451.05,342.27Z" style="fill: rgb(240, 240, 240); transform-origin: 356.525px 358.555px;" id="ela2td5u870r8" class="animable"></path><polygon points="445.43 360.95 444.68 363.46 268.4 363.46 267.64 360.95 445.43 360.95" style="fill: rgb(224, 224, 224); transform-origin: 356.535px 362.205px;" id="el3m3rin2x57m" class="animable"></polygon><rect x="285.37" y="389.08" width="139.97" height="3.19" style="fill: rgb(224, 224, 224); transform-origin: 355.355px 390.675px;" id="elvw2fidjph1i" class="animable"></rect><polygon points="292.13 377.79 272.73 410.21 281.18 410.21 305.27 377.79 292.13 377.79" style="fill: rgb(224, 224, 224); transform-origin: 289px 394px;" id="el12vjf9ajmgsf" class="animable"></polygon><polygon points="419.18 377.79 438.57 410.21 430.13 410.21 406.04 377.79 419.18 377.79" style="fill: rgb(224, 224, 224); transform-origin: 422.305px 394px;" id="elu7htnv41ldh" class="animable"></polygon><path d="M415.38,320.48V299.14a.49.49,0,0,0-.49-.49.5.5,0,0,0-.5.49v21.34Z" style="fill: rgb(224, 224, 224); transform-origin: 414.885px 309.565px;" id="elgjlnxq69l7" class="animable"></path><polygon points="401.7 322.79 402.18 324.54 402.28 324.92 406.15 339.29 423.63 339.29 427.5 324.92 427.6 324.54 428.07 322.79 428.18 322.42 428.7 320.48 401.08 320.48 401.6 322.42 401.7 322.79" style="fill: rgb(224, 224, 224); transform-origin: 414.89px 329.885px;" id="eln78ialr615q" class="animable"></polygon><path d="M413.12,306.21a1.43,1.43,0,0,0,1.5-.56,1.6,1.6,0,0,0,.24-.53,1.55,1.55,0,0,0,0-.31,1.45,1.45,0,0,0-.33-.91c-1.89-2.29-11.47-13.37-16-8.74C393.17,300.76,407.88,304.93,413.12,306.21Z" style="fill: rgb(240, 240, 240); transform-origin: 406.12px 300.145px;" id="elfmk1njieemb" class="animable"></path><path d="M404.65,299.75l10,5.9a1.6,1.6,0,0,0,.24-.53l-9.92-5.87a.29.29,0,0,0-.39.1A.28.28,0,0,0,404.65,299.75Z" style="fill: rgb(224, 224, 224); transform-origin: 409.707px 302.431px;" id="elplvs8o4g21o" class="animable"></path><path d="M414.89,310.3a1.53,1.53,0,0,0,0,.3,1.35,1.35,0,0,0,.24.53,1.43,1.43,0,0,0,1.5.56c5.23-1.28,19.95-5.45,14.52-11-4.49-4.64-14.07,6.44-16,8.73A1.4,1.4,0,0,0,414.89,310.3Z" style="fill: rgb(240, 240, 240); transform-origin: 423.608px 305.648px;" id="elz837fgna77i" class="animable"></path><path d="M414.92,310.6a1.35,1.35,0,0,0,.24.53l10-5.9a.28.28,0,0,0,.1-.39.29.29,0,0,0-.39-.11Z" style="fill: rgb(224, 224, 224); transform-origin: 420.111px 307.912px;" id="el2xfmzhjyaj8" class="animable"></path><path d="M413.8,299.06a1.45,1.45,0,0,0,.43.87,2,2,0,0,0,.24.19,1.39,1.39,0,0,0,.55.19,1.42,1.42,0,0,0,1.44-.7c2.69-4.67,9.82-18.2,2-18.13C412,281.53,413.44,296.11,413.8,299.06Z" style="fill: rgb(240, 240, 240); transform-origin: 417.712px 290.902px;" id="elcr9mdm5cy18" class="animable"></path><path d="M414.47,300.12a1.39,1.39,0,0,0,.55.19L417.63,289a.3.3,0,0,0-.22-.35.29.29,0,0,0-.34.22Z" style="fill: rgb(224, 224, 224); transform-origin: 416.053px 294.477px;" id="elzbrmxp4x4th" class="animable"></path><path d="M413.12,318a1.4,1.4,0,0,0,1.5-.56,1.32,1.32,0,0,0,.27-.83,1.43,1.43,0,0,0-.33-.91c-1.89-2.29-11.47-13.37-16-8.74C393.17,312.53,407.88,316.7,413.12,318Z" style="fill: rgb(240, 240, 240); transform-origin: 406.141px 311.942px;" id="el3zra2ztyu1k" class="animable"></path><path d="M404.65,311.52l10,5.89a1.55,1.55,0,0,0,.24-.52L404.94,311a.28.28,0,0,0-.39.1A.28.28,0,0,0,404.65,311.52Z" style="fill: rgb(224, 224, 224); transform-origin: 409.692px 314.184px;" id="elaaitxuqgogr" class="animable"></path></g><g id="freepik--button-2--inject-97" class="animable" style="transform-origin: 252.74px 339.945px;"><path d="M468.48,454c0,3.5-96.59,6.34-215.74,6.34S37,457.52,37,454s96.59-6.33,215.74-6.33S468.48,450.52,468.48,454Z" style="fill: rgb(245, 245, 245); transform-origin: 252.74px 454.005px;" id="ellb43gplycjt" class="animable"></path><rect x="126.35" y="219.55" width="225.71" height="84.03" rx="42.02" style="fill: rgb(0, 255, 136); transform-origin: 239.205px 261.565px;" id="el8xb5uecz7tf" class="animable"></rect><g id="eln1mcot1gsw"><rect x="126.35" y="219.55" width="225.71" height="84.03" rx="42.02" style="fill: rgb(255, 255, 255); opacity: 0.7; transform-origin: 239.205px 261.565px;" class="animable"></rect></g><g id="elpd3j4sqj6oc"><path d="M168.36,300.58a39,39,0,0,1,0-78H310a39,39,0,1,1,0,78Z" style="fill: rgb(255, 255, 255); opacity: 0.3; transform-origin: 239.18px 261.58px;" class="animable"></path></g><circle cx="310" cy="261.56" r="37.77" style="fill: rgb(0, 255, 136); transform-origin: 310px 261.56px;" id="elwooadmptci" class="animable"></circle><path d="M326.71,272.41a4.14,4.14,0,1,1-5.86,5.86L310,267.42l-10.84,10.85a4.14,4.14,0,1,1-5.86-5.86l10.84-10.84L293.3,250.72a4.14,4.14,0,0,1,5.86-5.86L310,255.71l10.85-10.85a4.14,4.14,0,0,1,5.86,5.86l-10.84,10.85Z" style="fill: rgb(255, 255, 255); transform-origin: 310.005px 261.565px;" id="elqif3h6qjugb" class="animable"></path></g><g id="freepik--button-1--inject-97" class="animable" style="transform-origin: 239.205px 167.895px;"><rect x="126.35" y="125.88" width="225.71" height="84.03" rx="42.02" style="fill: rgb(0, 255, 136); transform-origin: 239.205px 167.895px;" id="elc5lg8xuuniv" class="animable"></rect><g id="el43fxpqfah2d"><path d="M168.36,206.91a39,39,0,0,1,0-78H310a39,39,0,1,1,0,78Z" style="opacity: 0.2; transform-origin: 239.18px 167.91px;" class="animable"></path></g><circle cx="209.31" cy="167.9" r="37.77" style="fill: rgb(0, 255, 136); transform-origin: 209.31px 167.9px;" id="eleax4icyn606" class="animable"></circle><g id="el897owavz3qa"><circle cx="209.31" cy="167.9" r="37.77" style="fill: rgb(255, 255, 255); opacity: 0.7; transform-origin: 209.31px 167.9px;" class="animable"></circle></g><path d="M202.71,181.1h0a3.49,3.49,0,0,1-2.44-1l-9.36-9.36a3.44,3.44,0,0,1,4.87-4.87l6.93,6.93,20.14-20.14a3.44,3.44,0,0,1,4.87,4.87l-22.58,22.57A3.45,3.45,0,0,1,202.71,181.1Z" style="fill: rgb(255, 255, 255); transform-origin: 209.315px 166.377px;" id="el30mhmyvbb1r" class="animable"></path></g><g id="freepik--Plant--inject-97" class="animable" style="transform-origin: 143.775px 390.725px;"><rect x="136.9" y="448.28" width="13.91" height="6.24" style="fill: rgb(38, 50, 56); transform-origin: 143.855px 451.4px;" id="elwuwx967g7c" class="animable"></rect><path d="M171,414.46,169,419.7l-.39,1.06-.21.58-.33.89-1.23,3.36-.08.22-.2.57-.64,1.74-.72,2-.24.67,0,.07-.35.93-1.68,4.6-.36,1-3.38,9.26-.26.7-.67,1.83a3.89,3.89,0,0,1-1.19,1.66,4.25,4.25,0,0,1-.67.43,3.64,3.64,0,0,1-1.48.41H132.86a3.88,3.88,0,0,1-1-.14,4.79,4.79,0,0,1-.77-.32,3.81,3.81,0,0,1-1.79-2l-2.74-7.5-.34-.93-1.93-5.3-.22-.58-.1-.28-.33-.92-1.9-5.21-.13-.32-.1-.26-.82-2.27-.37-1-.31-.83-.28-.76-.21-.59-.06-.16-.9-2.47,0-.06-.23-.61-1.69-4.63Z" style="fill: rgb(38, 50, 56); transform-origin: 143.82px 433.07px;" id="el0knizfk2qkbp" class="animable"></path><g id="elxthj23rbxy"><polygon points="169.04 419.7 168.65 420.76 168.44 421.34 168.12 422.23 119.43 422.23 118.53 419.76 118.51 419.7 169.04 419.7" style="fill: rgb(255, 255, 255); opacity: 0.2; transform-origin: 143.775px 420.965px;" class="animable"></polygon></g><g id="elgzukv8f9q9u"><polygon points="166.88 425.59 166.8 425.81 166.6 426.38 165.96 428.12 121.58 428.12 121.48 427.86 120.66 425.59 166.88 425.59" style="fill: rgb(255, 255, 255); opacity: 0.2; transform-origin: 143.77px 426.855px;" class="animable"></polygon></g><path d="M126.71,391.61s7.66-2.79,9.64,5.32,7.66,6,8.73,4.24c2.12-3.51,2.41-16.17-1.23-16.94C139.5,383.32,128.24,387.92,126.71,391.61Z" style="fill: rgb(0, 255, 136); transform-origin: 136.675px 393.455px;" id="ely4qdkh77pm" class="animable"></path><g id="elc3wm5cb1j9n"><g style="opacity: 0.5; transform-origin: 136.675px 393.455px;" class="animable"><path d="M126.71,391.61s7.66-2.79,9.64,5.32,7.66,6,8.73,4.24c2.12-3.51,2.41-16.17-1.23-16.94C139.5,383.32,128.24,387.92,126.71,391.61Z" id="el8pislql5ir3" class="animable" style="transform-origin: 136.675px 393.455px;"></path></g></g><path d="M131.27,381.59s-7.74-2.49-10.62,5.61,0,28,0,28,6.67-2.09,8.83-8.93,1.94-21.9,14.37-22.08Z" style="fill: rgb(0, 255, 136); transform-origin: 131.61px 398.215px;" id="elz0g7cme8gc" class="animable"></path><g id="elmlxmfh7sxe"><path d="M132.85,382.07c-6.72,3.92-7.81,12.22-8.49,19.25,0,.36.54.36.57,0,.66-6.81,1.67-14.95,8.21-18.75a.29.29,0,0,0-.29-.5Z" style="opacity: 0.2; transform-origin: 128.812px 391.816px;" class="animable"></path></g><path d="M158.21,338.5s-7.54-3.1-9.85,4.93-7.74,7.37-8.71,4c-1.13-3.93-1.94-16.39,1.73-17C145.76,329.7,156.83,334.75,158.21,338.5Z" style="fill: rgb(0, 255, 136); transform-origin: 148.454px 340.079px;" id="el7wv0gr8tksr" class="animable"></path><g id="el07o1q7ktxn2u"><g style="opacity: 0.5; transform-origin: 148.454px 340.079px;" class="animable"><path d="M158.21,338.5s-7.54-3.1-9.85,4.93-7.74,7.37-8.71,4c-1.13-3.93-1.94-16.39,1.73-17C145.76,329.7,156.83,334.75,158.21,338.5Z" id="elpqbbqd12i9g" class="animable" style="transform-origin: 148.454px 340.079px;"></path></g></g><path d="M154.05,328.31s7.84-2.18,10.39,6-1.14,28-1.14,28a14.53,14.53,0,0,1-8.46-9.28c-1.88-6.93-1.05-22-13.46-22.64Z" style="fill: rgb(0, 255, 136); transform-origin: 153.359px 345.178px;" id="eluk191decww" class="animable"></path><g id="elbl7pi2nopnn"><g style="opacity: 0.2; transform-origin: 156.661px 340.705px;" class="animable"><path d="M151.82,329.08c7.15,5.56,8.33,15.06,9.21,23.45,0,.36.61.37.57,0-.89-8.53-2.11-18.2-9.38-23.86-.28-.22-.69.18-.4.41Z" id="ell5u27vnh2ud" class="animable" style="transform-origin: 156.661px 340.705px;"></path></g></g><path d="M166.22,375.72s-4.7-1.42-9.64,5.31c-4.75,6.49-6.65,7.25-9.87,4.73s-1.27-16.66,2.37-17.42C153.43,367.42,164.69,372,166.22,375.72Z" style="fill: rgb(0, 255, 136); transform-origin: 155.65px 377.659px;" id="elzv6esq02xu" class="animable"></path><g id="el9ud3m9ozf0h"><g style="opacity: 0.5; transform-origin: 155.65px 377.659px;" class="animable"><path d="M166.22,375.72s-4.7-1.42-9.64,5.31c-4.75,6.49-6.65,7.25-9.87,4.73s-1.27-16.66,2.37-17.42C153.43,367.42,164.69,372,166.22,375.72Z" id="eln0iihdhmz0q" class="animable" style="transform-origin: 155.65px 377.659px;"></path></g></g><path d="M166.2,364.52s11-3.56,15.16,8,0,40,0,40-9.52-3-12.6-12.76-2.29-31.08-20-31.33C152.29,367.37,159.22,366,166.2,364.52Z" style="fill: rgb(0, 255, 136); transform-origin: 165.984px 388.261px;" id="el3k2l071lsbx" class="animable"></path><g id="el2hpsoaz4sj8"><g style="opacity: 0.2; transform-origin: 170.682px 377.766px;" class="animable"><path d="M163.15,365.75a27.61,27.61,0,0,1,14.68,24.32.29.29,0,0,0,.57,0,28.19,28.19,0,0,0-15-24.81c-.33-.17-.62.32-.29.49Z" id="elhxogi1n1w3s" class="animable" style="transform-origin: 170.682px 377.766px;"></path></g></g><path d="M121.33,356.92s7.66-2.79,9.64,5.32,12,11.2,13,7.24c1.09-4.23-1.32-19.29-5-20.06C134.64,348.51,122.86,353.23,121.33,356.92Z" style="fill: rgb(0, 255, 136); transform-origin: 132.782px 360.251px;" id="ele7fzln4b3mm" class="animable"></path><g id="elza5oeflesw"><g style="opacity: 0.5; transform-origin: 132.782px 360.251px;" class="animable"><path d="M121.33,356.92s7.66-2.79,9.64,5.32,12,11.2,13,7.24c1.09-4.23-1.32-19.29-5-20.06C134.64,348.51,122.86,353.23,121.33,356.92Z" id="ell15xdkvsbp" class="animable" style="transform-origin: 132.782px 360.251px;"></path></g></g><path d="M121.35,345.72s-11-3.56-15.16,8,0,40,0,40,9.52-3,12.61-12.75,2.76-31.25,20.51-31.51Z" style="fill: rgb(0, 255, 136); transform-origin: 121.826px 369.461px;" id="elnjjpn2bret8" class="animable"></path><g id="eli9k2wsfsi4j"><path d="M125.79,346.71c-4.78.24-8.87,3.23-11.54,7.06-3.26,4.67-4.37,10.44-5.45,15.92-.07.36.48.52.55.16,1-5.18,2.05-10.56,4.92-15.08,2.53-4,6.66-7.25,11.52-7.49.36,0,.36-.59,0-.57Z" style="opacity: 0.2; transform-origin: 117.427px 358.381px;" class="animable"></path></g><path d="M143.23,414.46h1.94c4.89-20.71,1.6-42.89-2.1-58a177.69,177.69,0,0,0-9.62-28.9.95.95,0,1,0-1.72.79,175.94,175.94,0,0,1,9.52,28.6C144.91,372,148.18,394,143.23,414.46Z" style="fill: rgb(0, 255, 136); transform-origin: 139.619px 370.695px;" id="elmcs7bh9qg" class="animable"></path></g><g id="freepik--Character--inject-97" class="animable" style="transform-origin: 335.907px 282.789px;"><polygon points="355.16 428.82 355.16 446.19 348.14 446.75 344.7 430.48 355.16 428.82" style="fill: rgb(255, 139, 123); transform-origin: 349.93px 437.785px;" id="elnhlzzwv2nwo" class="animable"></polygon><path d="M350.18,445.11s-2.21-4.23-3.51-3.78-1.83,5.59-1.83,5.59-7.07,2.36-9,2.49-3.57,1.24-3.83,5.1h24.15s-.16-8.71-.21-10.2-2.17.37-2.17.37Z" style="fill: rgb(38, 50, 56); transform-origin: 344.085px 447.903px;" id="el4dxthtafyt5" class="animable"></path><path d="M355.84,447.62a3.62,3.62,0,0,0-1.31,5.09.18.18,0,1,1-.3.19,4,4,0,0,1,1.38-5.61c.2-.13.43.21.23.33Z" style="fill: rgb(255, 255, 255); transform-origin: 354.762px 450.135px;" id="elacqcmdnf5er" class="animable"></path><path d="M355.88,453.13l-18.94.19-4.41.05c-.24,0-.29-.38,0-.38l18.95-.2,4.4-.05c.25,0,.3.38.05.39Z" style="fill: rgb(255, 255, 255); transform-origin: 344.213px 453.055px;" id="elwtleiq8s5v" class="animable"></path><path d="M345.88,448.44c-1-1.18-2.43-1.52-3.52-.62-.18.14-.41-.19-.23-.34,1.24-1,2.94-.58,4.06.77.17.2-.14.39-.31.19Z" style="fill: rgb(255, 255, 255); transform-origin: 344.152px 447.727px;" id="elt4lgg77rej" class="animable"></path><path d="M343.88,449.07a2.45,2.45,0,0,0-3.52-.63c-.18.15-.41-.18-.23-.33,1.24-1,2.94-.58,4.06.76.17.2-.14.4-.31.2Z" style="fill: rgb(255, 255, 255); transform-origin: 342.152px 448.355px;" id="elhxvb5mjoj6r" class="animable"></path><path d="M341.82,449.69a2.46,2.46,0,0,0-3.53-.62c-.18.15-.41-.18-.23-.33,1.24-1,2.94-.58,4.06.76.17.2-.14.39-.3.19Z" style="fill: rgb(255, 255, 255); transform-origin: 340.082px 448.981px;" id="elwjapscxnmb" class="animable"></path><path d="M359.37,256.64c-.2,3.1.23,12.62-.19,17.73-.79,9.74-1.85,22.37-2.69,35-1,14.65-1.68,29.32-1.33,39.5.9,26.14.7,85.38.7,85.38H344.52s-13.32-58.88-15.81-85.38c-2.08-22-1-78.57-.63-92.25Z" style="fill: rgb(0, 255, 136); transform-origin: 343.421px 345.435px;" id="elwaoi7ywt48d" class="animable"></path><g id="elg994645bk3t"><path d="M359.37,256.64c-.2,3.1.23,12.62-.19,17.73-.79,9.74-1.85,22.37-2.69,35-1,14.65-1.68,29.32-1.33,39.5.9,26.14.7,85.38.7,85.38H344.52s-13.32-58.88-15.81-85.38c-2.08-22-1-78.57-.63-92.25Z" style="fill: rgb(255, 255, 255); opacity: 0.3; transform-origin: 343.421px 345.435px;" class="animable"></path></g><g id="eldglyix6q13r"><path d="M359.18,274.37c-.79,9.74-1.85,22.37-2.69,35-5.58-16.52-.4-41.48-.4-41.48Z" style="opacity: 0.2; transform-origin: 356.541px 288.63px;" class="animable"></path></g><polygon points="356.84 434.67 343.53 434.67 342.56 430.43 357.19 430.25 356.84 434.67" style="fill: rgb(0, 255, 136); transform-origin: 349.875px 432.46px;" id="elm3yget9jg3r" class="animable"></polygon><polygon points="417.77 425.58 420.42 442.75 413.57 444.37 407.69 428.82 417.77 425.58" style="fill: rgb(255, 139, 123); transform-origin: 414.055px 434.975px;" id="elm2ba56urpj" class="animable"></polygon><path d="M415.33,442.44s-2.82-3.85-4-3.2-1,5.8-1,5.8-6.63,3.42-8.56,3.84-3.34,1.78-3,5.63l23.86-3.68s-1.49-8.59-1.76-10.06-2.09.7-2.09.7Z" style="fill: rgb(38, 50, 56); transform-origin: 410.675px 446.838px;" id="elyennz09rnt" class="animable"></path><path d="M421.32,444.05a3.61,3.61,0,0,0-.52,5.23c.16.21-.11.45-.28.24a4,4,0,0,1,.51-5.76c.18-.15.46.14.29.29Z" style="fill: rgb(255, 255, 255); transform-origin: 420.451px 446.66px;" id="el6ykzycxb1ee" class="animable"></path><path d="M422.19,449.49l-18.69,3.09-4.34.72c-.25,0-.35-.34-.11-.38l18.69-3.08,4.34-.72c.25,0,.35.33.11.37Z" style="fill: rgb(255, 255, 255); transform-origin: 410.62px 451.21px;" id="elqvnd4we0our" class="animable"></path><path d="M411.6,446.38a2.46,2.46,0,0,0-3.58-.07c-.15.17-.44-.12-.28-.29,1.07-1.2,2.81-1,4.13.13.2.17-.08.41-.27.23Z" style="fill: rgb(255, 255, 255); transform-origin: 409.816px 445.825px;" id="el3zfvsauviic" class="animable"></path><path d="M409.72,447.31a2.46,2.46,0,0,0-3.58-.08c-.15.18-.44-.12-.28-.29,1.07-1.2,2.81-1,4.13.13.2.18-.08.41-.27.24Z" style="fill: rgb(255, 255, 255); transform-origin: 407.936px 446.748px;" id="elxa510m9dr98" class="animable"></path><path d="M407.77,448.25a2.45,2.45,0,0,0-3.58-.08c-.15.17-.44-.12-.28-.29,1.07-1.2,2.82-1,4.13.13.2.17-.08.41-.27.24Z" style="fill: rgb(255, 255, 255); transform-origin: 405.986px 447.688px;" id="el7upvtawak86" class="animable"></path><path d="M377.83,351.18c7,25.67,30.57,81.2,30.57,81.2l11.17-1.95s-11.64-57.77-17-83.36c-4.84-23.1-10.16-76.15-11.88-91.95l-37.5,3.38c2,13.53,18.82,71.38,24.64,92.68Z" style="fill: rgb(0, 255, 136); transform-origin: 386.38px 343.75px;" id="eleqittjyivsm" class="animable"></path><g id="elkbfyj7etvkj"><path d="M377.83,351.18c7,25.67,30.57,81.2,30.57,81.2l11.17-1.95s-11.64-57.77-17-83.36c-4.84-23.1-10.16-76.15-11.88-91.95l-37.5,3.38c2,13.53,18.82,71.38,24.64,92.68Z" style="fill: rgb(255, 255, 255); opacity: 0.3; transform-origin: 386.38px 343.75px;" class="animable"></path></g><polygon points="420.61 430.67 407.5 432.95 405.81 428.94 420.42 426.27 420.61 430.67" style="fill: rgb(0, 255, 136); transform-origin: 413.21px 429.61px;" id="elb3wfw0iu638" class="animable"></polygon><path d="M392.88,255.12a3.8,3.8,0,0,1-3.25,3.68l-59.83,2.76c-1.75.08-3.8-1.12-3.75-2.87.6-20.64,5.41-91.65,7-96.13,2-5.5,13.07-7.48,17.91-7.92a171.66,171.66,0,0,1,22.94,0c3.73.18,7.13.51,9.95.86a7.62,7.62,0,0,1,6.6,8.77A217.93,217.93,0,0,0,388,188.08l-.06,1.15c-.13,2.69-.25,5.35-.26,8,0,.52,0,1.05,0,1.57C388,225.5,391.41,238.59,392.88,255.12Z" style="fill: rgb(38, 50, 56); transform-origin: 359.465px 207.91px;" id="elhnvoesxih5" class="animable"></path><g id="el5gf0hsbc2hx"><path d="M388,188.08l-.06,1.15c-.13,2.69-.25,5.35-.26,8l-11.51-22.59Z" style="opacity: 0.2; transform-origin: 382.085px 185.935px;" class="animable"></path></g><path d="M355,114.21s-10.37-4.89-14.66-2.47c-3.37,1.9-1.12,5.81-1.12,5.81s-6.33.2-6.33,4.2a3.57,3.57,0,0,0,3.41,3.59s-2.25,3.86.22,4.75,5.36-4.21,5.36-4.21Z" style="fill: rgb(38, 50, 56); transform-origin: 343.945px 120.631px;" id="elu0nly71ze7g" class="animable"></path><path d="M366,134.27s2.73,3.95,2.18,5c-.82,1.64-3-.22-3-.22s2,2.69,0,4-3.25-5.27-3.25-5.27Z" style="fill: rgb(38, 50, 56); transform-origin: 365.092px 138.746px;" id="elsnfwxjsusih" class="animable"></path><path d="M350.33,114.68a15.93,15.93,0,0,1,12.54,2c2.41,1.58,4.41,3.82,4.05,6.86-.85,7.08-4,18.73-4,18.73l-22.81-13.91s-1-6,1.9-9.7C343.5,116.73,347.17,115.46,350.33,114.68Z" style="fill: rgb(38, 50, 56); transform-origin: 353.453px 128.224px;" id="elqy8xyro398" class="animable"></path><path d="M351.55,150.05h0l0,.09,1.11,4.07a12.78,12.78,0,0,1,.05,2.47,14.09,14.09,0,0,1-.28,2c-.89,1.23-1.3,4,1.89,4,4,0,11.37-5.94,11.62-7.72-1.9-5.49-3.5-11.91-3.24-17.17l-4.56,5Z" style="fill: rgb(255, 139, 123); transform-origin: 358.745px 150.235px;" id="el7c2suytzy98" class="animable"></path><g id="el8df8xq7qv8v"><g style="opacity: 0.2; transform-origin: 355.042px 149.13px;" class="animable"><path d="M351.58,150.15l1.11,4.07c2.51-1.17,5.13-3.66,5.71-6.35.41-1.94-.47-3.74-1.26-3.83Z" id="el7a4y0qypzz2" class="animable" style="transform-origin: 355.042px 149.13px;"></path></g></g><path d="M341.33,141.67c.24.89.51,1.76.81,2.62,2.59,7.6,12,8.22,17.79,2.56l0,0a13.86,13.86,0,0,0,1.46-1.66c3.67-4.91,2.71-8.66,2.09-17.18A11.64,11.64,0,0,0,346,118.65C338.93,122.72,338.87,132.81,341.33,141.67Z" style="fill: rgb(255, 139, 123); transform-origin: 351.967px 133.84px;" id="elljecxp8qjv" class="animable"></path><path d="M346.93,143.07h-.23a.26.26,0,0,1-.23-.28.25.25,0,0,1,.28-.23,3.67,3.67,0,0,0,4-3.51.26.26,0,0,1,.29-.22.27.27,0,0,1,.22.29A4.18,4.18,0,0,1,346.93,143.07Z" style="fill: rgb(38, 50, 56); transform-origin: 348.865px 140.95px;" id="eleboxkbdjdxi" class="animable"></path><path d="M363.6,128.79s-2.57.14-2.67,2.34.13,2.49.13,2.49l-3,.65s.8-8.4-1.41-8.28.17-3.67-1.16-4.21c-3.15-1.27-11.7-1.31-15,3.85,0,0,.85-5.08,4.89-7.84s12.21-3.37,15.53.62S363.6,128.79,363.6,128.79Z" style="fill: rgb(38, 50, 56); transform-origin: 352.069px 124.919px;" id="ela454814kt9b" class="animable"></path><path d="M367.89,133.14a8.09,8.09,0,0,1-3.21,5.3c-2.3,1.68-4.44-.15-4.62-2.84-.17-2.42.83-6.2,3.54-6.81s4.66,1.74,4.29,4.35" style="fill: rgb(255, 139, 123); transform-origin: 363.988px 133.889px;" id="elixvonh344oc" class="animable"></path><path d="M350.91,133.78c.09.67-.19,1.26-.62,1.32s-.86-.44-1-1.1.19-1.26.63-1.32.86.44,1,1.1" style="fill: rgb(38, 50, 56); transform-origin: 350.092px 133.89px;" id="elyhhjk3fdl9r" class="animable"></path><path d="M343.6,134.68c.09.67-.19,1.26-.63,1.32s-.86-.44-1-1.1.19-1.26.63-1.31.86.43,1,1.09" style="fill: rgb(38, 50, 56); transform-origin: 342.777px 134.796px;" id="ell8iahcbf4d" class="animable"></path><path d="M340.77,132.14a.34.34,0,0,0,.27-.21,1.74,1.74,0,0,1,.92-1.05,2,2,0,0,1,1.39,0,.34.34,0,0,0,.27-.63,2.74,2.74,0,0,0-1.92,0,2.37,2.37,0,0,0-1.29,1.42.33.33,0,0,0,.19.44A.32.32,0,0,0,340.77,132.14Z" style="fill: rgb(38, 50, 56); transform-origin: 342.105px 131.109px;" id="elumxjqeth46r" class="animable"></path><path d="M352.52,130.79a.35.35,0,0,0,.14-.06.34.34,0,0,0,.09-.47,2.73,2.73,0,0,0-1.59-1.07,2.42,2.42,0,0,0-1.86.49.34.34,0,1,0,.39.55,1.77,1.77,0,0,1,1.34-.37,2,2,0,0,1,1.16.78A.35.35,0,0,0,352.52,130.79Z" style="fill: rgb(38, 50, 56); transform-origin: 350.963px 129.977px;" id="el2vafnhr874z" class="animable"></path><path d="M346.41,133.41a48.8,48.8,0,0,0-2.08,5.68c-.1.78,2.39.76,2.39.76Z" style="fill: rgb(255, 86, 82); transform-origin: 345.524px 136.63px;" id="el86fw6q90w5l" class="animable"></path><path d="M352.24,153.41h0Z" id="el5g00i884fjh" class="animable" style="transform-origin: 352.24px 153.41px;"></path><path d="M390.06,159c4.74,6.32,9.27,12.8,13.72,19.33,2.24,3.25,4.41,6.55,6.62,9.81l3.25,4.9,1.61,2.39.8,1.16.38.54.26.43.22.39.17.32.29.59.23.52c.55,1.32.9,2.37,1.24,3.43s.63,2.07.92,3.08c.57,2,1.08,4,1.55,6,.94,3.94,1.82,7.85,2.6,11.78,1.58,7.84,3,15.68,4.05,23.62a4.49,4.49,0,0,1-8.64,2.21v0c-2.84-7.38-5.5-14.85-8.16-22.24-1.35-3.69-2.66-7.39-4-11-.69-1.81-1.37-3.61-2.06-5.34-.35-.87-.7-1.72-1-2.52a21,21,0,0,0-1-2.06,1.46,1.46,0,0,0-.09-.15s-.05-.07-.05-.06h0l0,.08.06.11c0,.08.1.16.16.24l0-.05-.14-.16-.28-.33-.54-.66-1.91-2.38-3.73-4.7c-2.43-3.15-4.86-6.28-7.24-9.45-4.76-6.34-9.42-12.74-13.86-19.31A9,9,0,0,1,390.05,159Z" style="fill: rgb(38, 50, 56); transform-origin: 401.059px 204.052px;" id="elrmcn8oaz8kj" class="animable"></path><path d="M420.33,250.94s-2.73,9-2.07,10.87,2.77-2,2.77-2Z" style="fill: rgb(255, 139, 123); transform-origin: 419.594px 256.63px;" id="el9sfi36ptz2m" class="animable"></path><path d="M428.25,248.61,432,257c.9,2.42-6.67,7-10,5.27-2.66-1.39-1.78-11.74-1.78-11.74A9.31,9.31,0,0,1,428.25,248.61Z" style="fill: rgb(255, 139, 123); transform-origin: 426.077px 255.514px;" id="el7yx6jo68wq5" class="animable"></path><path d="M432,257c1,2.7,1.27,8.18-3.09,9.28a10.29,10.29,0,0,1-2.92.43s.23,2.41-1.05,2.82-3.86-8.4-3.86-8.4Z" style="fill: rgb(255, 139, 123); transform-origin: 426.847px 263.272px;" id="elht4lk2fcny" class="animable"></path><path d="M344.31,175.19c-4.34,2.64-8.73,5.1-13.2,7.46q-2.19,1.15-4.41,2.27c-1.29.66-2.58,1.31-3.88,2-3.69,1.8-7.4,3.55-11.26,5.22-1.94.82-3.89,1.63-6.09,2.44-.53.2-1.16.4-1.79.61l-1.07.33-.75.18-.37.09-.2,0-.46.08c-.31,0-.66.09-.93.11l-.63,0a9.55,9.55,0,0,1-1-.05c-.33,0-.53-.05-.78-.08l-.67-.11a20.74,20.74,0,0,1-2.11-.5,68,68,0,0,1-6.43-2.26c-2-.78-3.91-1.63-5.8-2.49-3.79-1.71-7.48-3.49-11.13-5.36-7.3-3.72-14.44-7.62-21.43-11.92l2.93-6.6c7.79,2.2,15.51,4.62,23.18,7,3.84,1.16,7.66,2.35,11.44,3.45l5.62,1.56c1.74.46,3.53.89,5,1.12l.07,0c.32-.15.64-.29,1-.49,1.53-.74,3.24-1.66,4.93-2.59,3.41-1.85,6.88-3.8,10.35-5.74,6.95-3.89,14-7.8,21.11-11.4Z" style="fill: rgb(38, 50, 56); transform-origin: 297.115px 177.75px;" id="elizn38yhg8of" class="animable"></path><g id="eldqv1h1dncuq"><path d="M332.06,171.15l-.89,11.23-.06.27q-2.19,1.15-4.41,2.27Z" style="opacity: 0.2; transform-origin: 329.38px 178.035px;" class="animable"></path></g><path d="M249.7,173.27c2.88.52,6.76-1.08,4.69-6.27a93.48,93.48,0,0,0-4.5-9.47c-1.39-2.68-7.22-3.8-7.22-3.8s-3-2.58-3.44-1.18,4,4.84,4.52,5.84c1.73,3.12,3.51,6.26,3.43,6.82s-2.15-3.92-4-4.3,1.79,4.76,2.15,6.89S248.36,173,249.7,173.27Z" style="fill: rgb(255, 139, 123); transform-origin: 247.087px 162.748px;" id="elfwfh200a7e4" class="animable"></path><g id="el168pkcsnh69"><path d="M243.28,154a13,13,0,0,1,4.7,5.38c.08.17-.18.33-.26.16a12.8,12.8,0,0,0-4.59-5.27c-.16-.11,0-.38.15-.27Z" style="opacity: 0.2; transform-origin: 245.529px 156.793px;" class="animable"></path></g><g id="elng9wh484du"><path d="M248,157.91a8,8,0,0,0-2.38-2.74c-.15-.12.06-.34.22-.22a8.25,8.25,0,0,1,2.42,2.8c.1.18-.17.34-.26.16Z" style="opacity: 0.2; transform-origin: 246.925px 156.452px;" class="animable"></path></g></g><defs>     <filter id="active" height="200%">         <feMorphology in="SourceAlpha" result="DILATED" operator="dilate" radius="2"></feMorphology>                <feFlood flood-color="#32DFEC" flood-opacity="1" result="PINK"></feFlood>        <feComposite in="PINK" in2="DILATED" operator="in" result="OUTLINE"></feComposite>        <feMerge>            <feMergeNode in="OUTLINE"></feMergeNode>            <feMergeNode in="SourceGraphic"></feMergeNode>        </feMerge>    </filter>    <filter id="hover" height="200%">        <feMorphology in="SourceAlpha" result="DILATED" operator="dilate" radius="2"></feMorphology>                <feFlood flood-color="#ff0000" flood-opacity="0.5" result="PINK"></feFlood>        <feComposite in="PINK" in2="DILATED" operator="in" result="OUTLINE"></feComposite>        <feMerge>            <feMergeNode in="OUTLINE"></feMergeNode>            <feMergeNode in="SourceGraphic"></feMergeNode>        </feMerge>            <feColorMatrix type="matrix" values="0   0   0   0   0                0   1   0   0   0                0   0   0   0   0                0   0   0   1   0 "></feColorMatrix>    </filter></defs></svg>